<?xml version="1.0" encoding="utf-8"?>
<!-- Generator: Adobe Illustrator 22.1.0, SVG Export Plug-In . SVG Version: 6.00 Build 0)  -->
<svg version="1.1" id="Layer_1" xmlns="http://www.w3.org/2000/svg" xmlns:xlink="http://www.w3.org/1999/xlink" x="0px" y="0px"
	 viewBox="0 0 36.3 22" style="enable-background:new 0 0 36.3 22;" xml:space="preserve">
<style type="text/css">
	.st0{fill:#5B8DC9;}
	.st1{fill:#373A3C;}
</style>
<title>logo</title>
<g id="Layer_2_1_">
	<g id="Layer_1-2">
		<rect y="4.5" class="st0" width="1" height="13"/>
		<rect x="3" class="st0" width="1" height="22"/>
		<rect x="6" y="4.5" class="st0" width="1" height="13"/>
		<rect x="9" class="st0" width="1" height="22"/>
		<rect x="12" y="4.5" class="st0" width="1" height="13"/>
		<path class="st1" d="M22.8,13.9h-1.1l-0.3-1.1h-1.7l-0.3,1.1h-1.1l1.6-4.7h1.2L22.8,13.9z M19.9,12h1.2l-0.5-1.7
			c0-0.1-0.1-0.2-0.1-0.3C20.5,10.2,20.3,10.9,19.9,12z"/>
		<path class="st1" d="M25.3,10c-0.3,0-0.7,0.1-0.9,0.4c-0.2,0.3-0.3,0.8-0.3,1.2c0,1,0.4,1.6,1.2,1.6c0.4,0,0.8-0.1,1.2-0.2v0.8
			c-0.4,0.2-0.8,0.2-1.3,0.2c-0.6,0-1.1-0.2-1.5-0.6c-0.4-0.5-0.6-1.1-0.5-1.8c0-0.6,0.2-1.3,0.6-1.8c0.4-0.4,1-0.7,1.6-0.6
			c0.5,0,0.9,0.1,1.4,0.3l-0.3,0.8C26.1,10.1,25.7,10,25.3,10z"/>
		<path class="st1" d="M31.6,11.7v-0.4c0-0.1,0-0.4,0-1.1l0,0l-1.2,3.6h-0.9l-1.1-3.7l0,0c0,0.8,0.1,1.3,0.1,1.5v2.2h-0.9V9.2h1.4
			l1.1,3.6l0,0l1.2-3.6h1.3v4.7h-0.9L31.6,11.7z"/>
		<path class="st1" d="M36.3,13.1v0.8h-2.7V9.2h2.7V10h-1.7v1h1.6v0.8h-1.6V13L36.3,13.1z"/>
	</g>
</g>
</svg>
